<?xml version="1.0" encoding="utf-8"?>
<svg viewBox="-246.126 -7.71 989.192 165.42" xmlns="http://www.w3.org/2000/svg">
  <defs>
    <linearGradient id="editing-gradient-gradient" x1="0" x2="1" y1="0.5" y2="0.5" gradientUnits="objectBoundingBox">
      <stop offset="0" stop-color="#7c00ff"/>
      <stop offset="1" stop-color="#ec00ff"/>
    </linearGradient>
    <style>text {
  font-size: 64px;
  font-family: Arial Black;
  dominant-baseline: central;
  text-anchor: middle;
}</style>
  </defs>
  <path d="M -133.576 -159.42 L -80.234 -159.42 L -42.276 -98.53 L -8.433 -159.42 L 44.555 -159.42 L -17.02 -60.706 L -17.02 6 L -66.432 6 L -66.432 -60.806 Z M 77.99 6 L 26.047 6 L 87.457 -159.42 L 144.094 -159.42 L 208.605 6 L 156.486 6 L 142.896 -32.28 L 90.792 -32.28 Z M 101.221 -63.13 L 131.838 -63.13 L 116.121 -107.443 Z M 302.438 -159.42 L 348.122 -159.42 L 378.756 -50.708 L 401.627 -159.42 L 454.39 -159.42 L 408.898 6 L 348.394 6 L 324.728 -79.961 L 300.862 6 L 240.214 6 L 195.148 -159.42 L 248.541 -159.42 L 271.705 -50.357 Z M 527.412 -156.181 L 527.766 -155.568 L 562.897 -94.022 L 561.762 -91.659 L 565.194 -90.004 L 565.163 -90.058 L 565.378 -90.171 L 565.263 -89.97 L 565.362 -89.922 L 565.518 -90.246 L 568.641 -91.896 L 567.593 -94.046 L 604.941 -159.42 L 662.002 -159.42 L 662.002 6 L 612.589 6 L 612.589 0 L 612.61 -85.947 L 608.701 -86.118 L 608.363 -82.242 L 578.402 -31.21 L 552.155 -31.21 L 522.387 -80.509 L 521.643 -86.917 L 517.673 -86.466 L 517.909 -84.358 L 517.909 6 L 468.51 6 L 468.51 -159.42 L 525.558 -159.42 Z M 725 6 L 673.057 6 L 734.468 -159.42 L 791.103 -159.42 L 855.616 6 L 803.496 6 L 789.907 -32.28 L 737.801 -32.28 Z M 748.232 -63.13 L 778.848 -63.13 L 763.132 -107.443 Z" fill="url(#editing-gradient-gradient)" style="" transform="matrix(1, 0, 0, 1, -112.55000305175784, 151.70999145507807)"/>
</svg>